<svg width="18" height="18" viewBox="0 0 18 18" fill="#889EA6" xmlns="http://www.w3.org/2000/svg">
<g id="Icons / Other / Arrow Back">
<rect id="Rectangle 3485" width="18" height="18" fill="#D9D9D9" fill-opacity="0.01"/>
<path id="Vector" d="M14.2787 7.59972C14.2296 7.5912 14.1799 7.58727 14.1302 7.58796H5.66446L5.84906 7.49619C6.0295 7.40491 6.19365 7.28067 6.33417 7.1291L8.70818 4.5916C9.02084 4.27258 9.07338 3.75937 8.83268 3.37562C8.55253 2.96669 8.01529 2.8779 7.63268 3.17733C7.60177 3.20154 7.57239 3.22792 7.54478 3.25631L3.25182 7.84493C2.91632 8.20312 2.91603 8.78418 3.25115 9.14279C3.25136 9.14301 3.2516 9.14327 3.25182 9.1435L7.54478 13.7321C7.88055 14.09 8.42417 14.0892 8.75902 13.7303C8.78537 13.7021 8.80998 13.672 8.83268 13.6403C9.07338 13.2566 9.02084 12.7434 8.70818 12.4244L6.33846 9.88227C6.21249 9.74748 6.06765 9.63446 5.90916 9.5473L5.65159 9.42341H14.083C14.5216 9.44082 14.9064 9.11333 14.9888 8.65252C15.0647 8.15222 14.7468 7.68088 14.2787 7.59972Z" />
</g>
</svg>
