<svg width="40" height="40" viewBox="0 0 40 40" fill="#889EA6" fill-opacity="0.6" xmlns="http://www.w3.org/2000/svg">
<g id="Icons/ Navigation / Back">
<rect id="Rectangle 499" width="40" height="40" rx="8" fill="#F5F5F6" />
<g id="Group">
<g id="Group_2">
<path id="Vector" d="M25.2785 18.5997C25.2294 18.5912 25.1797 18.5873 25.13 18.588H16.6642L16.8488 18.4962C17.0293 18.4049 17.1934 18.2807 17.3339 18.1291L19.7079 15.5916C20.0206 15.2726 20.0731 14.7594 19.8324 14.3756C19.5523 13.9667 19.015 13.8779 18.6324 14.1773C18.6015 14.2015 18.5721 14.2279 18.5445 14.2563L14.2516 18.8449C13.9161 19.2031 13.9158 19.7842 14.2509 20.1428C14.2511 20.143 14.2514 20.1433 14.2516 20.1435L18.5445 24.7321C18.8803 25.09 19.4239 25.0892 19.7588 24.7303C19.7851 24.7021 19.8097 24.672 19.8324 24.6403C20.0731 24.2566 20.0206 23.7434 19.7079 23.4244L17.3382 20.8823C17.2122 20.7475 17.0674 20.6345 16.9089 20.5473L16.6513 20.4234H25.0827C25.5213 20.4408 25.9061 20.1133 25.9885 19.6525C26.0645 19.1522 25.7466 18.6809 25.2785 18.5997Z" />
</g>
</g>
</g>
</svg>
