<svg width="20" height="20" viewBox="0 0 20 20" fill="#DCDDDE" xmlns="http://www.w3.org/2000/svg">
<g id="Icons/ Main Menu / Books">
<rect id="Rectangle 3348" width="20" height="20" fill="#D9D9D9" fill-opacity="0.01"/>
<path id="Union" fill-rule="evenodd" clip-rule="evenodd" d="M16.8888 3.65575V13.4887C16.8888 13.8492 16.5995 14.1433 16.244 14.1442C14.7447 14.1479 12.2328 14.466 10.5 16.3121V6.02178C10.5 5.89955 10.5306 5.78473 10.5885 5.68971C12.0108 3.35792 14.7438 3.00364 16.2464 3H16.248C16.4181 3 16.5783 3.06756 16.6992 3.19035C16.8215 3.31449 16.8888 3.47978 16.8888 3.65575ZM3.75185 3.00012H3.75336C5.25603 3.0037 7.98911 3.35799 9.41135 5.68977C9.46923 5.78479 9.4999 5.89962 9.4999 6.02184V16.3123C7.76705 14.4661 5.25518 14.148 3.75591 14.1444C3.40027 14.1434 3.111 13.8494 3.111 13.4888V3.65588C3.111 3.47991 3.17833 3.31461 3.30057 3.19047C3.42148 3.06768 3.5816 3.00012 3.75185 3.00012ZM18.3559 5.2666H17.8889V13.4876C17.8889 14.4083 17.1521 15.159 16.2464 15.1613C14.9747 15.1644 12.8778 15.4175 11.3928 16.8484C13.9612 16.2082 16.6687 16.6244 18.2117 16.9824C18.4044 17.027 18.6035 16.9809 18.7578 16.8556C18.9117 16.7307 18.9999 16.5439 18.9999 16.3435V5.92223C19 5.56073 18.711 5.2666 18.3559 5.2666ZM2.11103 5.2666V13.4876C2.11103 14.4083 2.84787 15.159 3.75351 15.1612C5.0252 15.1643 7.12204 15.4174 8.60701 16.8482C6.03877 16.208 3.33121 16.6241 1.78818 16.9822C1.59521 17.027 1.3963 16.9806 1.24206 16.8554C1.08824 16.7305 1 16.5438 1 16.3433V5.92223C1 5.56073 1.28897 5.2666 1.644 5.2666H2.11103Z" />
</g>
</svg>
