<svg width="20" height="20" viewBox="0 0 20 20" fill="#DCDDDE" xmlns="http://www.w3.org/2000/svg">
<g id="Icons/ Main Menu / Community ">
<rect id="Rectangle 3351" width="20" height="20" fill="#D9D9D9" fill-opacity="0.01"/>
<path id="Union" fill-rule="evenodd" clip-rule="evenodd" d="M5.83332 5.5C5.83332 6.88071 4.71403 8 3.33332 8C1.95261 8 0.833323 6.88071 0.833323 5.5C0.833323 4.11929 1.95261 3 3.33332 3C4.71403 3 5.83332 4.11929 5.83332 5.5ZM4.06485 11.8411C4.54449 10.9766 5.23625 10.2483 6.075 9.72496C5.84095 9.44643 5.54893 9.22234 5.21933 9.06833C4.88972 8.91433 4.53048 8.83411 4.16667 8.83329H2.5C1.83757 8.83527 1.20283 9.0993 0.734419 9.56771C0.266006 10.0361 0.00197841 10.6709 0 11.3333V13C0.00131894 13.4416 0.177337 13.8647 0.489612 14.177C0.801888 14.4893 1.22504 14.6653 1.66667 14.6666H3.33333C3.33347 13.678 3.58521 12.7056 4.06485 11.8411ZM16.6667 8C18.0474 8 19.1667 6.88071 19.1667 5.5C19.1667 4.11929 18.0474 3 16.6667 3C15.286 3 14.1667 4.11929 14.1667 5.5C14.1667 6.88071 15.286 8 16.6667 8ZM20 13V11.3333C19.998 10.6709 19.734 10.0361 19.2656 9.56771C18.7972 9.0993 18.1624 8.83527 17.5 8.83329H15.8333C15.4695 8.83411 15.1103 8.91433 14.7807 9.06833C14.4511 9.22234 14.1591 9.44643 13.925 9.72496C14.7638 10.2483 15.4555 10.9766 15.9352 11.8411C16.4148 12.7056 16.6665 13.678 16.6667 14.6666H18.3333C18.775 14.6653 19.1981 14.4893 19.5104 14.177C19.8227 13.8647 19.9987 13.4416 20 13ZM10 9.66667C11.841 9.66667 13.3333 8.17428 13.3333 6.33333C13.3333 4.49238 11.841 3 10 3C8.15906 3 6.66668 4.49238 6.66668 6.33333C6.66668 8.17428 8.15906 9.66667 10 9.66667ZM15 15.5V14.6667C15 13.5616 14.561 12.5018 13.7796 11.7204C12.9982 10.939 11.9384 10.5 10.8333 10.5H9.16667C8.0616 10.5 7.00179 10.939 6.22039 11.7204C5.43899 12.5018 5 13.5616 5 14.6667V15.5C5.00198 16.1624 5.26601 16.7972 5.73442 17.2656C6.20283 17.734 6.83757 17.998 7.5 18H12.5C13.1624 17.998 13.7972 17.734 14.2656 17.2656C14.734 16.7972 14.998 16.1624 15 15.5Z" />
</g>
</svg>
