<svg width="20" height="20" viewBox="0 0 20 20" fill="#DCDDDE" xmlns="http://www.w3.org/2000/svg">
<g id="Icons/ Main Menu / Courses" >
<rect id="Rectangle 3347" width="20" height="20" fill="#D9D9D9" fill-opacity="0.01"/>
<path id="Union" fill-rule="evenodd" clip-rule="evenodd" d="M10.1274 2.01549L18.6001 4.10245C18.8351 4.16033 19 4.36916 19 4.6087V7.73913C19 8.02731 18.7639 8.26087 18.4727 8.26087C18.1814 8.26087 17.9453 8.02731 17.9453 7.73913V5.27622L10.1274 7.20204C10.0856 7.21223 10.0428 7.21739 10 7.21739C9.95715 7.21739 9.91444 7.21223 9.87256 7.20204L1.3999 5.11508C1.16493 5.0572 1 4.84837 1 4.6087C1 4.36916 1.16493 4.16033 1.3999 4.10245L9.87256 2.01549C9.95633 1.99484 10.0437 1.99484 10.1274 2.01549ZM10 8.26087C10.1288 8.26087 10.2574 8.24524 10.3822 8.21454L16.3281 6.75V11.7391H3.67188V6.75L9.61768 8.21454C9.74265 8.24524 9.87119 8.26087 10 8.26087ZM19 13.3043C19 13.0162 18.7639 12.7826 18.4727 12.7826H3.63672C2.18282 12.7826 1 13.9529 1 15.3913C1 16.8298 2.18282 18 3.63672 18H18.4727C18.7639 18 19 17.7664 19 17.4783C19 17.1901 18.7639 16.9565 18.4727 16.9565H3.63672C2.7644 16.9565 2.05469 16.2543 2.05469 15.3913C2.05469 14.5283 2.7644 13.8261 3.63672 13.8261H18.4727C18.7639 13.8261 19 13.5925 19 13.3043ZM3.63672 15.913C3.34599 15.913 3.10938 15.6791 3.10938 15.3913C3.10938 15.1037 3.34599 14.8696 3.63672 14.8696H17.9453V15.913H3.63672Z"/>
</g>
</svg>
