<svg width="20" height="20" viewBox="0 0 20 20" fill="#D9D9D9" xmlns="http://www.w3.org/2000/svg">
<g id="Icons/ Main Menu / Dashboard">
<rect id="Rectangle 3350" width="20" height="20" fill="#D9D9D9" fill-opacity="0.01"/>
<path id="Vector" d="M17.8681 6.49857L11.6919 2.37544C11.3194 2.13052 10.8833 2 10.4375 
2C9.99169 2 9.55563 2.13052 9.18313 2.37544L3.00688 6.49857C2.697 6.70427 2.44287
6.9835 2.26718 7.31133C2.09149 7.63915 1.9997 8.00538 2 8.37732V16.1623C2.00089 
16.7603 2.23883 17.3335 2.66164 17.7563C3.08446 18.1791 3.65767 18.417 4.25563 
18.4179H16.6194C17.2173 18.417 17.7905 18.1791 18.2134 17.7563C18.6362 17.3335 
18.8741 16.7603 18.875 16.1623V8.37732C18.8753 8.00538 18.7835 7.63915 18.6078 
7.31133C18.4321 6.9835 18.178 6.70427 17.8681 6.49857ZM12.9688 16.1679H7.90625C7.68247 
16.1679 7.46786 16.079 7.30963 15.9208C7.1514 15.7626 7.0625 15.548 7.0625 15.3242C7.0625 15.1004 
7.1514 14.8858 7.30963 14.7276C7.46786 14.5693 7.68247 14.4804 7.90625 14.4804H12.9688C13.1925 14.4804 
13.4071 14.5693 13.5654 14.7276C13.7236 14.8858 13.8125 15.1004 13.8125 15.3242C13.8125 
15.548 13.7236 15.7626 13.5654 15.9208C13.4071 16.079 13.1925 16.1679 12.9688 16.1679Z" />
</g>
</svg>
