<svg width="20" height="20" viewBox="0 0 20 20" fill="#889EA6">
<g id="Icons / Other / Full screen ">
<path id="Union" fill-rule="evenodd" clip-rule="evenodd" d="M7.45833 18.9167H12.4583C16.9833 18.9167 18.9167 16.9833 18.9167 12.4583V7.45833C18.9167 2.93333 16.9833 1 12.4583 1H7.45833C2.93333 1 1 2.93333 1 7.45833V12.4583C1 16.9833 2.93333 18.9167 7.45833 18.9167ZM2.25 7.45833C2.25 3.61667 3.61667 2.25 7.45833 2.25H12.4583C16.3 2.25 17.6667 3.61667 17.6667 7.45833V12.4583C17.6667 16.3 16.3 17.6667 12.4583 17.6667H7.45833C3.61667 17.6667 2.25 16.3 2.25 12.4583V7.45833ZM4.5167 15.4C4.6417 15.525 4.80003 15.5833 4.95837 15.5833C4.95901 15.5833 4.95965 15.5833 4.96029 15.5833H8.29171C8.63337 15.5833 8.91671 15.3 8.91671 14.9583C8.91671 14.6167 8.63337 14.3333 8.29171 14.3333H6.4667L14.3333 6.4667V8.29168C14.3333 8.63334 14.6167 8.91668 14.9583 8.91668C15.3 8.91668 15.5833 8.63334 15.5833 8.29168V4.95834C15.5833 4.86626 15.5628 4.77841 15.526 4.69921C15.4961 4.6328 15.4541 4.57077 15.4 4.51667C15.3462 4.46284 15.2845 4.421 15.2185 4.39115C15.139 4.3541 15.0508 4.33334 14.9583 4.33334H11.625C11.2833 4.33334 11 4.61668 11 4.95834C11 5.30001 11.2833 5.58334 11.625 5.58334H13.45L5.58337 13.45V11.625C5.58337 11.2833 5.30004 11 4.95837 11C4.61671 11 4.33337 11.2833 4.33337 11.625V14.9583C4.33337 15.0512 4.3543 15.1397 4.39164 15.2195C4.42146 15.2851 4.46314 15.3464 4.5167 15.4Z" />
</g>
</svg>
