<svg width="20" height="20" viewBox="0 0 20 20" fill="#889EA6" xmlns="http://www.w3.org/2000/svg">
<g id="Icons / Additional Menu / Logout">
<rect id="Rectangle 3484" width="20" height="20" fill="#D9D9D9" fill-opacity="0.01"/>
<path id="Vector" fill-rule="evenodd" clip-rule="evenodd" d="M9.87153 17.1332V18.0302C9.87153 18.7496 9.51495 19.3706 8.89533 19.7302C8.59721 19.9033 8.26448 19.9998 7.91951 20C7.57422 20.0002 7.24159 19.9035 6.94327 19.7302L2.97621 17.4274C2.35651 17.0677 2 16.4468 2 15.7273V3.96305C2 2.88056 2.87582 2 3.95241 2H12.6893C13.766 2 14.6419 2.88049 14.6419 3.96305V6.44293C14.6419 6.79868 14.3546 7.08752 14.0008 7.08752C13.6468 7.08752 13.3598 6.79871 13.3598 6.44293V3.96305C13.3598 3.59134 13.059 3.2889 12.6893 3.2889H5.03351L8.89533 5.53105C9.51474 5.8907 9.87153 6.51156 9.87153 7.23075V15.8441H12.6893C13.059 15.8441 13.3598 15.5418 13.3598 15.1701V12.9962C13.3598 12.6402 13.6467 12.3516 14.0008 12.3516C14.3547 12.3516 14.6419 12.6403 14.6419 12.9962V15.1701C14.6419 16.2527 13.766 17.1332 12.6893 17.1332H9.87153ZM15.8116 10.211L15.1056 10.9208C14.8553 11.1725 14.8554 11.5806 15.1056 11.8323C15.2261 11.9535 15.3885 12.0208 15.5589 12.0208C15.7294 12.0208 15.8916 11.9537 16.0123 11.8323L17.8123 10.0221C18.0625 9.7705 18.0626 9.36269 17.8123 9.11104L16.0123 7.3012C15.7619 7.04948 15.3561 7.04959 15.1056 7.30117C14.8554 7.5526 14.8555 7.9608 15.1056 8.21231L15.8116 8.92197H11.0821C10.728 8.92197 10.4412 9.21053 10.4412 9.56659C10.4412 9.92266 10.728 10.211 11.0821 10.211H15.8116V10.211Z" />
</g>
</svg>
