<svg width="20" height="20" viewBox="0 0 20 20" fill="#889EA6" xmlns="http://www.w3.org/2000/svg">
<g id="Icons / Additional Menu / Orders">
<rect id="Rectangle 3484" width="20" height="20" fill="#D9D9D9" fill-opacity="0.01"/>
<path id="Vector" fill-rule="evenodd" clip-rule="evenodd" d="M3.47922 5.30074H5.88361V6.5434C5.88361 6.76 6.06809 6.93559 6.29565 6.93559C6.52322 6.93559 6.7077 6.76 6.7077 6.5434V5.30074H11.0232V6.5434C11.0232 6.76 11.2077 6.93559 11.4353 6.93559C11.6628 6.93559 11.8473 6.76 11.8473 6.5434V5.30074H14.2517C14.5188 5.30074 14.7401 5.49292 14.7645 5.74608L15.1522 9.75986C14.9688 9.74172 14.7827 9.73229 14.5943 9.73229C11.6499 9.73229 9.26293 12.0042 9.26293 14.8067C9.26293 15.496 9.40761 16.153 9.66915 16.7522H3.00909C2.71515 16.7522 2.46209 16.6459 2.26399 16.4392C2.06586 16.2325 1.97784 15.9829 2.00473 15.7043L2.96636 5.74608C2.99081 5.49292 3.21209 5.30074 3.47922 5.30074ZM5.88361 5.23617V3.83808C5.88361 3.0572 6.21894 2.34758 6.75919 1.83337C7.29944 1.31916 8.045 1 8.86543 1C9.68585 1 10.4314 1.31916 10.9717 1.83337C11.5119 2.34758 11.8472 3.05724 11.8472 3.83808V5.23617H11.0232V3.83808C11.0232 3.27372 10.7803 2.76032 10.389 2.38793C9.99773 2.01549 9.4584 1.78433 8.86543 1.78433C8.27249 1.78433 7.73312 2.01549 7.34183 2.38793C6.95053 2.76032 6.70766 3.27368 6.70766 3.83808V5.23617H5.88361ZM14.5943 10.6133C12.1611 10.6133 10.1886 12.4908 10.1886 14.8067C10.1886 17.1226 12.1611 19 14.5943 19C17.0275 19 19 17.1226 19 14.8067C19 12.4908 17.0275 10.6133 14.5943 10.6133ZM12.4408 15.0549L13.7589 16.2071C13.9436 16.3688 14.2295 16.3602 14.4031 16.1898L16.7551 14.0464C16.9388 13.8782 16.9445 13.6001 16.7678 13.4252C16.591 13.2504 16.2988 13.245 16.1151 13.4132L14.0653 15.2811L13.0663 14.4079C12.8786 14.2435 12.5864 14.2551 12.4136 14.4337C12.2409 14.6124 12.253 14.8905 12.4408 15.0549Z" />
</g>
</svg>
