<svg width="20" height="20" viewBox="0 0 20 20" fill="#889EA6" xmlns="http://www.w3.org/2000/svg">
<g id="Icons / Additional Menu / Profile" >
<rect id="Rectangle 3484" width="20" height="20" fill-opacity="0.01"/>
<path id="Union" fill-rule="evenodd" clip-rule="evenodd" d="M12.7519 8.5782C11.9662 9.32746 11.0046 9.70722 9.89412 9.70722C8.78389 9.70722 7.82242 9.32734 7.03661 8.57832C6.25079 7.82918 5.85238 6.91244 5.85238 5.85349C5.85238 4.79478 6.25079 3.87804 7.03648 3.1289C7.82217 2.37976 8.7835 2 9.89412 2C11.0045 2 11.9659 2.37976 12.7518 3.12878C13.5376 3.87816 13.9359 4.7949 13.9359 5.85349C13.9359 6.91244 13.5376 7.82906 12.7519 8.5782ZM16.8301 13.2922C16.8976 13.6513 16.9434 13.9914 16.9661 14.3032C16.9885 14.6079 16.9999 14.9259 17 15.2482C17 16.0838 16.7215 16.7601 16.1723 17.2584C15.6299 17.7505 14.9126 18.0001 14.0399 18.0001H5.96006C5.08744 18.0001 4.36986 17.7504 3.82755 17.2584C3.27845 16.7597 3 16.0836 3 15.2484C3 14.9274 3.01127 14.6097 3.03354 14.3035C3.0562 13.991 3.10204 13.6508 3.1695 13.2922C3.23761 12.9304 3.32531 12.5885 3.43016 12.2759C3.53873 11.9525 3.68621 11.6335 3.86839 11.3277C4.05736 11.0105 4.27973 10.7342 4.529 10.5067C4.79004 10.2685 5.10946 10.0773 5.47843 9.93798C5.84624 9.79906 6.25387 9.72863 6.69018 9.72863C6.86148 9.72863 7.02727 9.79565 7.34682 9.99425C7.54666 10.1184 7.77711 10.26 8.03175 10.4151C8.25131 10.5487 8.5491 10.6738 8.91653 10.787C9.27576 10.8977 9.63999 10.9538 9.99962 10.9538C10.3592 10.9538 10.7236 10.8977 11.0824 10.787C11.4503 10.6737 11.748 10.5486 11.9679 10.415C12.2249 10.2584 12.4553 10.1168 12.6522 9.99438C12.9721 9.79577 13.1378 9.72875 13.3091 9.72875C13.7452 9.72875 14.153 9.79906 14.5209 9.93786C14.8902 10.0774 15.2094 10.2687 15.4702 10.5066C15.7196 10.734 15.9419 11.0104 16.1311 11.3277C16.3134 11.6335 16.4609 11.9526 16.5693 12.2757C16.6743 12.5884 16.762 12.9304 16.8301 13.2922Z" />
</g>
</svg>
