<svg width="20" height="20" viewBox="0 0 20 20" fill="#889EA6" xmlns="http://www.w3.org/2000/svg">
<g id="Icons / Additional Menu / Professional Info" >
<rect id="Rectangle 6001" width="20" height="20" fill="white" fill-opacity="0.01"/>
<path id="Union" fill-rule="evenodd" clip-rule="evenodd" d="M13.3278 4.97543H17.2045C18.1921 4.97543 18.9955 5.79668 18.9955 6.80609C18.9955 6.90511 18.9966 7.00326 18.9978 7.10076C19.007 7.89372 19.0157 8.64412 18.4076 9.47245C18.023 9.99637 17.4944 10.3701 16.8791 10.5532L10.9041 12.3314C10.3125 12.5074 9.68709 12.5074 9.09556 12.3314L3.12054 10.5532C2.50523 10.3701 1.97669 9.99637 1.59208 9.47245C0.985231 8.64579 0.993328 7.90088 1.00205 7.09826C1.0031 7.00178 1.00416 6.90448 1.00416 6.80609C1.00416 5.79668 1.80763 4.97543 2.7952 4.97543H6.67191V3.37874C6.67191 2.61848 7.27704 2 8.02084 2H11.9789C12.7227 2 13.3278 2.61848 13.3278 3.37874V4.97543ZM8.02084 3.16784C7.90705 3.16784 7.81447 3.26243 7.81447 3.37874V4.97543H12.1853V3.37874C12.1853 3.26247 12.0927 3.16784 11.9789 3.16784H8.02084ZM14.0237 12.624C14.8554 12.3744 15.893 12.063 17.1985 11.6745C17.8906 11.4685 18.5036 11.0888 18.9955 10.5653V16.1694C18.9955 17.1788 18.1921 18 17.2045 18H2.79519C1.80759 18 1.00415 17.1788 1.00415 16.1694V10.5653C1.49602 11.0888 2.10901 11.4685 2.80115 11.6745C4.11335 12.065 5.15537 12.3776 5.98943 12.6278C9.32795 13.6292 9.33465 13.6312 9.99982 13.6312C10.6676 13.6312 10.7498 13.6065 14.0237 12.624Z" />
</g>
</svg>
