<svg width="20" height="20" viewBox="0 0 20 20" fill="#DCDDDE" xmlns="http://www.w3.org/2000/svg">
<g id="Icons/ Main Menu / Workshops">
<rect id="Rectangle 3349" width="20" height="20" fill="#D9D9D9" fill-opacity="0.01"/>
<path id="Vector" d="M18.6291 5.87771C18.4217 5.14347 17.8137 4.56467 17.0427 4.36696C15.6341 4 9.9998 4 9.9998 4C9.9998 4 4.36567 4 2.95711 4.35305C2.20092 4.55055 1.5781 5.14357 1.37068 5.87771C1 7.21879 1 10 1 10C1 10 1 12.7952 1.37068 14.1223C1.57832 14.8564 2.18609 15.4352 2.95722 15.6329C4.3805 16 10 16 10 16C10 16 15.6341 16 17.0427 15.6469C17.8138 15.4493 18.4217 14.8705 18.6294 14.1364C18.9999 12.7952 18.9999 10.0141 18.9999 10.0141C18.9999 10.0141 19.0148 7.21879 18.6291 5.87771ZM8.20595 12.5694V7.43062L12.8912 10L8.20595 12.5694Z" />
</g>
</svg>
